<svg width="24" height="24" viewBox="0 0 24 24" fill="none" xmlns="http://www.w3.org/2000/svg">
<g opacity="0.4">
<mask id="path-1-inside-1_870_11591" fill="white">
<path fill-rule="evenodd" clip-rule="evenodd" d="M15.9202 12.7988C15.9725 12.5407 16 12.2736 16 12C16 9.79086 14.2091 8 12 8C11.7264 8 11.4593 8.02746 11.2012 8.07977L12.1239 9.00251C13.6822 9.06583 14.9342 10.3178 14.9975 11.8761L15.9202 12.7988ZM9.39311 10.5143C9.14295 10.9523 9 11.4595 9 12C9 13.6569 10.3431 15 12 15C12.5405 15 13.0477 14.857 13.4857 14.6069L14.212 15.3332C13.5784 15.7545 12.8179 16 12 16C9.79086 16 8 14.2091 8 12C8 11.1821 8.24547 10.4216 8.66676 9.78799L9.39311 10.5143Z"/>
</mask>
<path fill-rule="evenodd" clip-rule="evenodd" d="M15.9202 12.7988C15.9725 12.5407 16 12.2736 16 12C16 9.79086 14.2091 8 12 8C11.7264 8 11.4593 8.02746 11.2012 8.07977L12.1239 9.00251C13.6822 9.06583 14.9342 10.3178 14.9975 11.8761L15.9202 12.7988ZM9.39311 10.5143C9.14295 10.9523 9 11.4595 9 12C9 13.6569 10.3431 15 12 15C12.5405 15 13.0477 14.857 13.4857 14.6069L14.212 15.3332C13.5784 15.7545 12.8179 16 12 16C9.79086 16 8 14.2091 8 12C8 11.1821 8.24547 10.4216 8.66676 9.78799L9.39311 10.5143Z" fill="#000C14"/>
<path d="M15.9202 12.7988L15.2131 13.5059L16.5303 14.8231L16.9003 12.9974L15.9202 12.7988ZM11.2012 8.07977L11.0026 7.0997L9.17691 7.46971L10.4941 8.78688L11.2012 8.07977ZM12.1239 9.00251L11.4168 9.70962L11.693 9.98583L12.0833 10.0017L12.1239 9.00251ZM14.9975 11.8761L13.9983 11.9167L14.0142 12.307L14.2904 12.5832L14.9975 11.8761ZM9.39311 10.5143L10.2615 11.0103L10.6402 10.3472L10.1002 9.80723L9.39311 10.5143ZM13.4857 14.6069L14.1928 13.8998L13.6528 13.3598L12.9897 13.7385L13.4857 14.6069ZM14.212 15.3332L14.7657 16.1659L15.7827 15.4897L14.9191 14.6261L14.212 15.3332ZM8.66676 9.78799L9.37387 9.08088L8.51029 8.21731L7.83405 9.23428L8.66676 9.78799ZM16.9003 12.9974C16.9658 12.6743 17 12.3406 17 12H15C15 12.2065 14.9793 12.4071 14.9402 12.6002L16.9003 12.9974ZM17 12C17 9.23858 14.7614 7 12 7V9C13.6569 9 15 10.3431 15 12H17ZM12 7C11.6594 7 11.3257 7.03421 11.0026 7.0997L11.3998 9.05985C11.5929 9.02071 11.7935 9 12 9V7ZM10.4941 8.78688L11.4168 9.70962L12.831 8.29541L11.9083 7.37267L10.4941 8.78688ZM15.9967 11.8355C15.9122 9.75679 14.2432 8.0878 12.1645 8.00334L12.0833 10.0017C13.1212 10.0439 13.9561 10.8788 13.9983 11.9167L15.9967 11.8355ZM14.2904 12.5832L15.2131 13.5059L16.6273 12.0917L15.7046 11.169L14.2904 12.5832ZM8.52475 10.0184C8.19061 10.6035 8 11.281 8 12H10C10 11.638 10.0953 11.3012 10.2615 11.0103L8.52475 10.0184ZM8 12C8 14.2091 9.79086 16 12 16V14C10.8954 14 10 13.1046 10 12H8ZM12 16C12.719 16 13.3966 15.8094 13.9816 15.4752L12.9897 13.7385C12.6988 13.9047 12.362 14 12 14V16ZM14.9191 14.6261L14.1928 13.8998L12.7786 15.314L13.5049 16.0403L14.9191 14.6261ZM12 17C13.0209 17 13.9732 16.6929 14.7657 16.1659L13.6583 14.5005C13.1837 14.8161 12.6148 15 12 15V17ZM7 12C7 14.7614 9.23858 17 12 17V15C10.3431 15 9 13.6569 9 12H7ZM7.83405 9.23428C7.30705 10.0268 7 10.9791 7 12H9C9 11.3852 9.18389 10.8163 9.49947 10.3417L7.83405 9.23428ZM10.1002 9.80723L9.37387 9.08088L7.95966 10.4951L8.686 11.2214L10.1002 9.80723Z" fill="#000C14" mask="url(#path-1-inside-1_870_11591)"/>
<path fill-rule="evenodd" clip-rule="evenodd" d="M16.1545 17.2751L15.4201 16.5406C14.3561 17.1196 13.1994 17.5 12.0007 17.5C10.3289 17.5 8.73889 16.7599 7.36787 15.7735C6.00079 14.79 4.89379 13.5918 4.19865 12.7478C3.7743 12.2326 3.73047 12.1435 3.73047 12C3.73047 11.8565 3.7743 11.7674 4.19865 11.2522C4.86794 10.4396 5.91904 9.29863 7.21645 8.33704L6.50212 7.62271C5.17064 8.63072 4.10457 9.79349 3.42677 10.6164L3.36796 10.6876C3.03744 11.087 2.73047 11.4579 2.73047 12C2.73047 12.5421 3.03744 12.913 3.36796 13.3124L3.42677 13.3836C4.15172 14.2638 5.32087 15.5327 6.78385 16.5853C8.24289 17.635 10.0368 18.5 12.0007 18.5C13.5108 18.5 14.9204 17.9886 16.1545 17.2751ZM9.19066 6.06861C10.0705 5.71828 11.0142 5.5 12.0007 5.5C13.9646 5.5 15.7586 6.365 17.2176 7.41472C18.6806 8.46727 19.8498 9.73623 20.5747 10.6164L20.6335 10.6876C20.9641 11.087 21.271 11.4579 21.271 12C21.271 12.5421 20.9641 12.913 20.6335 13.3124L20.5747 13.3836C20.0943 13.9669 19.4187 14.721 18.5918 15.4697L17.8838 14.7617C18.6794 14.0456 19.3346 13.3164 19.8028 12.7478C20.2272 12.2326 20.271 12.1435 20.271 12C20.271 11.8565 20.2272 11.7674 19.8028 11.2522C19.1077 10.4082 18.0007 9.21001 16.6336 8.22646C15.2626 7.24007 13.6726 6.5 12.0007 6.5C11.3063 6.5 10.626 6.62768 9.9697 6.84765L9.19066 6.06861Z" fill="#000C14"/>
<path d="M16.1545 17.2751L16.4047 17.7079L16.9685 17.382L16.508 16.9215L16.1545 17.2751ZM15.4201 16.5406L15.7736 16.1871L15.5094 15.9228L15.1811 16.1014L15.4201 16.5406ZM7.36787 15.7735L7.65988 15.3677H7.65988L7.36787 15.7735ZM4.19865 12.7478L4.5846 12.43L4.5846 12.43L4.19865 12.7478ZM4.19865 11.2522L3.81271 10.9343L4.19865 11.2522ZM7.21645 8.33704L7.51417 8.73874L7.98001 8.39349L7.57001 7.98349L7.21645 8.33704ZM6.50212 7.62271L6.85567 7.26915L6.54764 6.96112L6.20032 7.22406L6.50212 7.62271ZM3.42677 10.6164L3.81222 10.9349L3.81271 10.9343L3.42677 10.6164ZM3.36796 10.6876L3.75317 11.0064L3.75342 11.0061L3.36796 10.6876ZM3.36796 13.3124L3.75342 12.9939L3.75317 12.9936L3.36796 13.3124ZM3.42677 13.3836L3.81271 13.0657L3.81222 13.0651L3.42677 13.3836ZM6.78385 16.5853L6.49185 16.9912L6.78385 16.5853ZM9.19066 6.06861L9.0057 5.60408L8.3 5.88506L8.83711 6.42216L9.19066 6.06861ZM17.2176 7.41472L16.9256 7.82059V7.82059L17.2176 7.41472ZM20.5747 10.6164L20.1888 10.9343L20.1893 10.9349L20.5747 10.6164ZM20.6335 10.6876L20.2481 11.0061L20.2483 11.0063L20.6335 10.6876ZM20.6335 13.3124L20.2483 12.9936L20.2481 12.9939L20.6335 13.3124ZM20.5747 13.3836L20.1893 13.0651L20.1888 13.0657L20.5747 13.3836ZM18.5918 15.4697L18.2382 15.8233L18.5747 16.1597L18.9274 15.8404L18.5918 15.4697ZM17.8838 14.7617L17.5493 14.3901L17.1576 14.7426L17.5302 15.1153L17.8838 14.7617ZM19.8028 12.7478L20.1888 13.0657L19.8028 12.7478ZM19.8028 11.2522L20.1888 10.9343V10.9343L19.8028 11.2522ZM16.6336 8.22646L16.9256 7.82059L16.6336 8.22646ZM9.9697 6.84765L9.61615 7.2012L9.83506 7.42011L10.1286 7.32173L9.9697 6.84765ZM16.508 16.9215L15.7736 16.1871L15.0665 16.8942L15.8009 17.6286L16.508 16.9215ZM12.0007 18C13.3057 18 14.5448 17.5861 15.659 16.9798L15.1811 16.1014C14.1673 16.653 13.0931 17 12.0007 17V18ZM7.07586 16.1794C8.49093 17.1975 10.1829 18 12.0007 18V17C10.4749 17 8.98686 16.3224 7.65988 15.3677L7.07586 16.1794ZM3.81271 13.0657C4.52275 13.9278 5.66083 15.1614 7.07586 16.1794L7.65988 15.3677C6.34076 14.4186 5.26483 13.2558 4.5846 12.43L3.81271 13.0657ZM3.23047 12C3.23047 12.065 3.23565 12.1485 3.26419 12.2458C3.29129 12.3381 3.33273 12.42 3.37891 12.4955C3.46441 12.6352 3.60487 12.8134 3.81271 13.0657L4.5846 12.43C4.36808 12.1671 4.27445 12.0431 4.23194 11.9736C4.21413 11.9445 4.21808 11.9449 4.2237 11.9641C4.23077 11.9882 4.23047 12.0067 4.23047 12H3.23047ZM3.81271 10.9343C3.60487 11.1866 3.46441 11.3648 3.37891 11.5045C3.33273 11.58 3.29129 11.6619 3.26419 11.7542C3.23565 11.8515 3.23047 11.935 3.23047 12H4.23047C4.23047 11.9933 4.23077 12.0118 4.2237 12.0359C4.21808 12.0551 4.21413 12.0555 4.23194 12.0264C4.27445 11.9569 4.36808 11.8329 4.5846 11.57L3.81271 10.9343ZM6.91873 7.93534C5.57692 8.92984 4.49663 10.1039 3.81271 10.9343L4.5846 11.57C5.23926 10.7752 6.26115 9.66742 7.51417 8.73874L6.91873 7.93534ZM7.57001 7.98349L6.85567 7.26915L6.14857 7.97626L6.8629 8.69059L7.57001 7.98349ZM3.81271 10.9343C4.47613 10.1288 5.51435 8.99764 6.80392 8.02135L6.20032 7.22406C4.82694 8.2638 3.733 9.45815 3.04083 10.2985L3.81271 10.9343ZM3.75342 11.0061L3.81222 10.9349L3.04132 10.2979L2.98251 10.3691L3.75342 11.0061ZM3.23047 12C3.23047 11.6642 3.40519 11.4269 3.75317 11.0064L2.98276 10.3688C2.66969 10.7471 2.23047 11.2517 2.23047 12H3.23047ZM3.75317 12.9936C3.40518 12.5731 3.23047 12.3358 3.23047 12H2.23047C2.23047 12.7483 2.66969 13.2529 2.98276 13.6312L3.75317 12.9936ZM3.81222 13.0651L3.75342 12.9939L2.98251 13.6309L3.04132 13.7021L3.81222 13.0651ZM7.07586 16.1794C5.66083 15.1614 4.52275 13.9278 3.81271 13.0657L3.04083 13.7015C3.7807 14.5998 4.98091 15.9041 6.49185 16.9912L7.07586 16.1794ZM12.0007 18C10.1829 18 8.49093 17.1975 7.07586 16.1794L6.49185 16.9912C7.99485 18.0725 9.89078 19 12.0007 19V18ZM15.9042 16.8422C14.7202 17.5268 13.3971 18 12.0007 18V19C13.6245 19 15.1205 18.4504 16.4047 17.7079L15.9042 16.8422ZM9.37562 6.53314C10.208 6.20174 11.0887 6 12.0007 6V5C10.9397 5 9.9331 5.23482 9.0057 5.60408L9.37562 6.53314ZM12.0007 6C13.8186 6 15.5106 6.80251 16.9256 7.82059L17.5096 7.00885C16.0066 5.9275 14.1107 5 12.0007 5V6ZM16.9256 7.82059C18.3407 8.83865 19.4787 10.0722 20.1888 10.9343L20.9607 10.2985C20.2208 9.40024 19.0206 8.0959 17.5096 7.00885L16.9256 7.82059ZM20.1893 10.9349L20.2481 11.0061L21.019 10.3691L20.9602 10.2979L20.1893 10.9349ZM20.2483 11.0063C20.5963 11.4269 20.771 11.6642 20.771 12H21.771C21.771 11.2517 21.3318 10.7471 21.0187 10.3688L20.2483 11.0063ZM20.771 12C20.771 12.3358 20.5963 12.5731 20.2483 12.9936L21.0187 13.6312C21.3318 13.2529 21.771 12.7483 21.771 12H20.771ZM20.2481 12.9939L20.1893 13.0651L20.9602 13.7021L21.019 13.6309L20.2481 12.9939ZM20.1888 13.0657C19.7194 13.6356 19.0606 14.3708 18.2562 15.0991L18.9274 15.8404C19.7768 15.0713 20.4691 14.2983 20.9607 13.7015L20.1888 13.0657ZM17.5302 15.1153L18.2382 15.8233L18.9453 15.1162L18.2373 14.4082L17.5302 15.1153ZM18.2183 15.1334C19.0369 14.3965 19.7092 13.648 20.1888 13.0657L19.4169 12.43C18.96 12.9847 18.3219 13.6947 17.5493 14.3901L18.2183 15.1334ZM20.1888 13.0657C20.3966 12.8134 20.5371 12.6352 20.6226 12.4955C20.6688 12.42 20.7102 12.3381 20.7373 12.2458C20.7658 12.1485 20.771 12.065 20.771 12H19.771C19.771 12.0067 19.7707 11.9882 19.7778 11.9641C19.7834 11.9449 19.7874 11.9445 19.7695 11.9736C19.727 12.0431 19.6334 12.1671 19.4169 12.43L20.1888 13.0657ZM20.771 12C20.771 11.935 20.7658 11.8515 20.7373 11.7542C20.7102 11.6619 20.6688 11.58 20.6226 11.5045C20.5371 11.3648 20.3966 11.1866 20.1888 10.9343L19.4169 11.57C19.6334 11.8329 19.727 11.9569 19.7695 12.0264C19.7874 12.0555 19.7834 12.0551 19.7778 12.0359C19.7707 12.0118 19.771 11.9933 19.771 12H20.771ZM20.1888 10.9343C19.4787 10.0722 18.3407 8.83865 16.9256 7.82059L16.3416 8.63233C17.6607 9.58138 18.7367 10.7442 19.4169 11.57L20.1888 10.9343ZM16.9256 7.82059C15.5106 6.80251 13.8186 6 12.0007 6V7C13.5266 7 15.0146 7.67763 16.3416 8.63233L16.9256 7.82059ZM12.0007 6C11.2446 6 10.5105 6.13907 9.81081 6.37357L10.1286 7.32173C10.7416 7.11629 11.3681 7 12.0007 7V6ZM8.83711 6.42216L9.61615 7.2012L10.3233 6.4941L9.54421 5.71506L8.83711 6.42216Z" fill="#000C14"/>
<path d="M5 2L21 18" stroke="#000C14"/>
</g>
</svg>
